# xmcd CD database file
#
# Track frame offsets:
#	150
#	19592
#	36153
#	62863
#	79182
#	108393
#	121058
#	137703
#	160739
#	175811
#	185468
#
# Disc length: 3126 seconds
#
# Revision: 0
# Processed by: cddbd v1.5.2PL0 Copyright (c) Steve Scherf et al.
# Submitted via: CDex 1.70beta2
#
DISCID=890c340b
DTITLE=BACCHUS - BACCHUS  and FRIENDS
DYEAR=1900
DGENRE=Blues
TTITLE0=Killing me Babe
TTITLE1=Rendez-vous à Saint Dizier
TTITLE2=Le Blues, fils
TTITLE3=Jo
TTITLE4=Roadhouse Blues
TTITLE5=et une bouteille de Rome
TTITLE6=Bye Bye Grey
TTITLE7=Bâtiment 30
TTITLE8=Godasse Blues
TTITLE9=Travelling Band
TTITLE10=No More White Horses
EXTD=
EXTT0=
EXTT1=
EXTT2=
EXTT3=
EXTT4=
EXTT5=
EXTT6=
EXTT7=
EXTT8=
EXTT9=
EXTT10=
PLAYORDER=
